<mxfile host="app.diagrams.net" agent="Mozilla/5.0 (Windows NT 10.0; Win64; x64) AppleWebKit/537.36 (KHTML, like Gecko) Chrome/133.0.0.0 Safari/537.36" version="26.0.16">
  <diagram id="유스케이스-다이어그램" name="페이지-1">
    <mxGraphModel dx="1195" dy="622" grid="1" gridSize="10" guides="1" tooltips="1" connect="1" arrows="1" fold="1" page="1" pageScale="1" pageWidth="827" pageHeight="1169" math="0" shadow="0">
      <root>
        <mxCell id="0" />
        <mxCell id="1" parent="0" />
        <mxCell id="actor1" value="기안자" style="shape=umlActor;" parent="1" vertex="1">
          <mxGeometry x="10" y="100" width="50" height="80" as="geometry" />
        </mxCell>
        <mxCell id="actor2" value="결재자" style="shape=umlActor;" parent="1" vertex="1">
          <mxGeometry x="10" y="300" width="50" height="80" as="geometry" />
        </mxCell>
        <mxCell id="actor3" value="인사 관리자" style="shape=umlActor;" parent="1" vertex="1">
          <mxGeometry x="10" y="480" width="50" height="100" as="geometry" />
        </mxCell>
        <mxCell id="uc1" value="결재 문서 작성" style="ellipse;whiteSpace=wrap;html=1;" parent="1" vertex="1">
          <mxGeometry x="150" y="100" width="120" height="50" as="geometry" />
        </mxCell>
        <mxCell id="line1" parent="1" source="actor1" target="uc1" edge="1">
          <mxGeometry relative="1" as="geometry" />
        </mxCell>
        <mxCell id="wLEf8VwNEtLMcEkHiYo0-1" value="" style="edgeStyle=orthogonalEdgeStyle;rounded=0;orthogonalLoop=1;jettySize=auto;html=1;" edge="1" parent="1" source="uc2" target="uc1">
          <mxGeometry relative="1" as="geometry" />
        </mxCell>
        <mxCell id="uc2" value="결재 요청" style="ellipse;whiteSpace=wrap;html=1;" parent="1" vertex="1">
          <mxGeometry x="320" y="100" width="120" height="50" as="geometry" />
        </mxCell>
        <mxCell id="line2" parent="1" source="uc1" target="uc2" edge="1">
          <mxGeometry relative="1" as="geometry" />
        </mxCell>
        <mxCell id="uc3" value="결재 진행" style="ellipse;whiteSpace=wrap;html=1;" parent="1" vertex="1">
          <mxGeometry x="320" y="300" width="120" height="50" as="geometry" />
        </mxCell>
        <mxCell id="line3" parent="1" source="uc2" target="uc3" edge="1">
          <mxGeometry relative="1" as="geometry" />
        </mxCell>
        <mxCell id="line4" parent="1" source="actor2" target="uc3" edge="1">
          <mxGeometry relative="1" as="geometry" />
        </mxCell>
        <mxCell id="wLEf8VwNEtLMcEkHiYo0-2" value="" style="edgeStyle=orthogonalEdgeStyle;rounded=0;orthogonalLoop=1;jettySize=auto;html=1;" edge="1" parent="1" source="uc4" target="uc3">
          <mxGeometry relative="1" as="geometry" />
        </mxCell>
        <mxCell id="uc4" value="결재 완료" style="ellipse;whiteSpace=wrap;html=1;" parent="1" vertex="1">
          <mxGeometry x="550" y="300" width="120" height="50" as="geometry" />
        </mxCell>
        <mxCell id="line5" value="종결함" parent="1" source="uc3" target="uc4" edge="1">
          <mxGeometry relative="1" as="geometry" />
        </mxCell>
        <mxCell id="uc5" value="결재 반려" style="ellipse;whiteSpace=wrap;html=1;" parent="1" vertex="1">
          <mxGeometry x="530" y="420" width="140" height="70" as="geometry" />
        </mxCell>
        <mxCell id="line6" value="반려함" style="align=center;" parent="1" source="uc3" target="uc5" edge="1">
          <mxGeometry relative="1" as="geometry" />
        </mxCell>
        <mxCell id="uc6" value="문서 수정" style="ellipse;whiteSpace=wrap;html=1;" parent="1" vertex="1">
          <mxGeometry x="120" y="400" width="140" height="70" as="geometry" />
        </mxCell>
        <mxCell id="line7" parent="1" source="actor1" target="uc6" edge="1">
          <mxGeometry relative="1" as="geometry" />
        </mxCell>
        <mxCell id="line8" value="반려사유" parent="1" source="uc5" target="uc6" edge="1">
          <mxGeometry relative="1" as="geometry" />
        </mxCell>
        <mxCell id="uc7" value="관리자 승인 후 수정" style="ellipse;whiteSpace=wrap;html=1;" parent="1" vertex="1">
          <mxGeometry x="339" y="540" width="181" height="70" as="geometry" />
        </mxCell>
        <mxCell id="line9" value="수정요청" parent="1" source="uc6" target="uc7" edge="1">
          <mxGeometry relative="1" as="geometry" />
        </mxCell>
        <mxCell id="line10" parent="1" target="uc7" edge="1">
          <mxGeometry relative="1" as="geometry">
            <mxPoint x="60" y="539" as="sourcePoint" />
          </mxGeometry>
        </mxCell>
        <mxCell id="wLEf8VwNEtLMcEkHiYo0-3" value="결재자" style="shape=umlActor;" vertex="1" parent="1">
          <mxGeometry x="10" y="200" width="50" height="80" as="geometry" />
        </mxCell>
        <mxCell id="wLEf8VwNEtLMcEkHiYo0-4" value="결재자" style="shape=umlActor;" vertex="1" parent="1">
          <mxGeometry x="10" y="390" width="60" height="80" as="geometry" />
        </mxCell>
        <mxCell id="wLEf8VwNEtLMcEkHiYo0-5" style="entryX=0;entryY=0.5;entryDx=0;entryDy=0;" edge="1" parent="1" source="wLEf8VwNEtLMcEkHiYo0-3" target="uc3">
          <mxGeometry relative="1" as="geometry">
            <mxPoint x="80" y="281" as="sourcePoint" />
            <mxPoint x="340" y="270" as="targetPoint" />
          </mxGeometry>
        </mxCell>
        <mxCell id="wLEf8VwNEtLMcEkHiYo0-6" style="entryX=0;entryY=0.5;entryDx=0;entryDy=0;" edge="1" parent="1" source="wLEf8VwNEtLMcEkHiYo0-4" target="uc3">
          <mxGeometry relative="1" as="geometry">
            <mxPoint x="100" y="380" as="sourcePoint" />
            <mxPoint x="360" y="458" as="targetPoint" />
          </mxGeometry>
        </mxCell>
      </root>
    </mxGraphModel>
  </diagram>
</mxfile>
